HIERARCHY
ROOT Hips
{
 OFFSET 0.000000 0.000000 0.000000
 CHANNELS 6 Xposition Yposition Zposition Yrotation Xrotation Zrotation
 JOINT Chest
 {
  OFFSET 0.000000 9.588913 -0.003946
  CHANNELS 3 Yrotation Xrotation Zrotation
  JOINT Chest2
  {
   OFFSET 0.000000 9.541882 0.008053
   CHANNELS 3 Yrotation Xrotation Zrotation
   JOINT Chest3
   {
    OFFSET 0.000000 9.501360 0.000000
    CHANNELS 3 Yrotation Xrotation Zrotation
    JOINT Chest4
    {
     OFFSET 0.000000 9.491660 0.000000
     CHANNELS 3 Yrotation Xrotation Zrotation
     JOINT Neck
     {
      OFFSET 0.000000 14.331917 0.000000
      CHANNELS 3 Yrotation Xrotation Zrotation
      JOINT Head
      {
       OFFSET 0.000000 8.884799 0.017034
       CHANNELS 3 Yrotation Xrotation Zrotation
       End Site
       {
        OFFSET 0.000000 16.896195 0.008993
       }
      }
     }
     JOINT RightCollar
     {
      OFFSET -2.923010 9.499495 0.000000
      CHANNELS 3 Yrotation Xrotation Zrotation
      JOINT RightShoulder
      {
       OFFSET -13.795216 0.000000 0.000000
       CHANNELS 3 Yrotation Xrotation Zrotation
       JOINT RightElbow
       {
        OFFSET -30.272209 0.000000 0.000000
        CHANNELS 3 Yrotation Xrotation Zrotation
        JOINT RightWrist
        {
         OFFSET -24.478199 0.000000 0.000000
         CHANNELS 3 Yrotation Xrotation Zrotation
         End Site
         {
          OFFSET -18.090752 0.000000 0.000000
         }
        }
       }
      }
     }
     JOINT LeftCollar
     {
      OFFSET 2.923010 9.499495 0.000000
      CHANNELS 3 Yrotation Xrotation Zrotation
      JOINT LeftShoulder
      {
       OFFSET 13.795216 0.000000 0.000000
       CHANNELS 3 Yrotation Xrotation Zrotation
       JOINT LeftElbow
       {
        OFFSET 30.272209 0.000000 0.000000
        CHANNELS 3 Yrotation Xrotation Zrotation
        JOINT LeftWrist
        {
         OFFSET 24.478199 0.000000 0.000000
         CHANNELS 3 Yrotation Xrotation Zrotation
         End Site
         {
          OFFSET 18.090752 0.000000 0.000000
         }
        }
       }
      }
     }
    }
   }
  }
 }
 JOINT RightHip
 {
  OFFSET -7.826875 0.019532 0.001973
  CHANNELS 3 Yrotation Xrotation Zrotation
  JOINT RightKnee
  {
   OFFSET 0.000000 -40.546152 -0.001885
   CHANNELS 3 Yrotation Xrotation Zrotation
   JOINT RightAnkle
   {
    OFFSET 0.000000 -39.417092 -0.003189
    CHANNELS 3 Yrotation Xrotation Zrotation
    JOINT RightToe
    {
     OFFSET 0.000000 -7.579396 17.243563
     CHANNELS 3 Yrotation Xrotation Zrotation
     End Site
     {
      OFFSET 0.000000 -1.500329 6.694466
     }
    }
   }
  }
 }
 JOINT LeftHip
 {
  OFFSET 7.826875 0.019532 0.001973
  CHANNELS 3 Yrotation Xrotation Zrotation
  JOINT LeftKnee
  {
   OFFSET 0.000000 -40.546152 -0.001885
   CHANNELS 3 Yrotation Xrotation Zrotation
   JOINT LeftAnkle
   {
    OFFSET 0.000000 -39.417092 -0.003189
    CHANNELS 3 Yrotation Xrotation Zrotation
    JOINT LeftToe
    {
     OFFSET 0.000000 -7.579396 17.243563
     CHANNELS 3 Yrotation Xrotation Zrotation
     End Site
     {
      OFFSET 0.000000 -1.500329 6.694466
     }
    }
   }
  }
 }
}
MOTION
Frames: 9
Frame Time: 0.008333
-33.829136 82.686247 -92.889903 20.120019 -15.844563 5.455654 5.274938 9.116740 -4.182769 3.522636 4.699906 -0.796765 4.396739 5.881827 -0.951306 3.522641 4.699938 -0.796767 -4.163005 23.884449 0.459586 -4.629583 0.136601 1.451832 1.039961 -1.893075 -8.940771 -1.574829 -11.433762 90.870294 36.318902 2.176734 14.162414 13.444615 -4.995519 -5.792253 3.831704 -0.360212 3.681119 26.615167 8.105973 -81.928495 -6.806878 -4.902161 -3.269244 -4.696101 1.666926 12.677111 -4.536573 19.231110 -7.007108 15.550091 52.799744 11.774107 10.289335 -7.483308 14.680301 16.574791 -42.266113 -37.624612 9.738052 -13.030593 -7.612055 -8.935629 29.025059 -0.091115 -0.611652 -3.267287 -0.943063 0.190186 -3.674446 -0.639850
-33.388489 82.657424 -92.028589 20.349051 -16.043859 5.190927 4.978947 9.207770 -3.865928 3.369703 4.722777 -0.855654 4.204631 5.910679 -1.026748 3.369710 4.722817 -0.855658 -4.048392 23.979461 0.542755 -4.524652 0.247523 1.515944 0.916189 -1.681089 -8.900942 -1.351449 -10.826073 91.261624 33.939847 2.498341 13.503392 13.840916 -4.847308 -5.728857 3.568588 -0.642951 3.406608 25.804918 7.532705 -82.571596 -7.534638 -5.301431 -3.629909 -4.907401 1.566635 12.600328 -4.529490 17.447924 -7.014763 17.356021 56.242108 13.776071 9.908026 -6.618238 15.931584 15.853099 -42.392030 -37.927864 9.391208 -12.448720 -7.387776 -8.757213 29.564247 -0.031935 -0.743451 -4.216046 -0.623943 0.205452 -2.742883 -0.652943
-32.959664 82.677206 -91.161157 20.620460 -16.326363 4.954126 4.608107 9.385558 -3.556430 3.209634 4.747695 -0.928113 4.003406 5.942137 -1.119261 3.209643 4.747737 -0.928117 -3.917185 24.059247 0.638454 -4.404177 0.339686 1.589868 0.739915 -1.520572 -8.838273 -1.329129 -10.235507 91.753250 31.510146 3.135271 12.832253 14.181522 -4.695989 -5.670659 3.247274 -0.918905 3.131163 24.918222 6.922145 -83.125162 -8.329015 -5.742585 -4.022676 -5.061795 1.498978 12.475573 -4.798481 15.676967 -7.170339 19.510756 59.656975 15.934222 9.719714 -5.976584 16.974160 12.963627 -40.820207 -36.497512 9.111986 -11.715810 -7.219923 -8.477485 30.002375 0.158317 -0.978515 -5.123102 -0.360605 0.209792 -1.945814 -0.634291
-32.536648 82.746988 -90.296459 20.888756 -16.629637 4.830155 4.205784 9.590109 -3.334186 3.045003 4.769937 -1.008189 3.796361 5.970236 -1.221410 3.045010 4.769980 -1.008192 -3.785849 24.134050 0.733122 -4.283263 0.426094 1.662668 0.527105 -1.377806 -8.775986 -1.469656 -9.619090 92.340764 29.084418 3.947138 12.105048 14.430860 -4.590778 -5.643521 2.887364 -1.160188 2.870117 23.900405 6.249662 -83.623172 -9.153881 -6.199792 -4.387924 -5.152653 1.473247 12.321339 -5.285415 13.898067 -7.523852 21.842862 63.044142 18.096530 9.827466 -5.699048 17.693924 7.225229 -35.319193 -30.698856 8.898649 -10.876416 -7.158332 -8.141407 30.295279 0.394041 -1.242982 -5.897374 -0.124222 0.206383 -1.320960 -0.599115
-32.109387 82.864601 -89.450341 21.105840 -16.878614 4.934852 3.812175 9.749082 -3.325190 2.878007 4.785874 -1.084607 3.586404 5.990343 -1.319085 2.878012 4.785916 -1.084611 -3.666750 24.213237 0.812289 -4.172250 0.518388 1.721470 0.296563 -1.223260 -8.729208 -1.702199 -8.958539 92.972334 26.705948 4.739017 11.306901 14.553749 -4.553443 -5.643573 2.525175 -1.342162 2.644031 22.714253 5.490100 -84.115859 -9.979991 -6.631909 -4.675041 -5.194595 1.488624 12.156976 -5.887985 12.053235 -8.120896 24.417690 66.377364 20.385975 10.025729 -5.845812 17.956251 1.458061 -24.790796 -21.015985 8.807891 -9.967688 -7.301198 -7.864461 30.378726 0.589583 -1.474628 -6.443343 0.105157 0.203687 -0.899465 -0.553721
-31.723148 83.023283 -88.604762 21.287694 -17.081363 4.972225 3.463962 9.844643 -3.256531 2.711625 4.794296 -1.146448 3.377412 6.000882 -1.398585 2.711627 4.794339 -1.146452 -3.564899 24.300118 0.868288 -4.074880 0.620605 1.759098 0.055659 -1.036683 -8.707483 -1.912600 -8.254512 93.591977 24.412724 5.309236 10.426237 14.534856 -4.590085 -5.648785 2.188387 -1.476295 2.469591 21.363261 4.644561 -84.624815 -10.786599 -7.007518 -4.866775 -5.210408 1.533706 11.998149 -6.516666 10.174903 -8.599789 27.559806 69.549543 23.168903 10.148500 -6.255090 17.730487 -1.245490 -13.868997 -12.596178 8.752722 -9.079014 -7.323946 -7.735026 30.363336 0.698941 -1.617655 -6.892673 0.291215 0.194143 -0.597053 -0.500080
-31.396640 83.215973 -87.754438 21.464120 -17.243450 4.804475 3.159348 9.887381 -3.021869 2.547953 4.792525 -1.184909 3.172139 5.998469 -1.448876 2.547952 4.792569 -1.184914 -3.480082 24.392932 0.900407 -3.990706 0.730521 1.774712 -0.197700 -0.809555 -8.716211 -2.033125 -7.515115 94.161069 22.240744 5.556241 9.493657 14.388576 -4.695192 -5.652171 1.879794 -1.599214 2.351945 19.896498 3.737848 -85.139524 -11.563997 -7.314226 -4.979657 -5.223427 1.588458 11.852296 -7.153348 8.268796 -8.769352 31.607987 72.482906 26.806008 10.129632 -6.744988 17.085289 -1.782807 -6.390097 -7.217809 8.633979 -8.263565 -7.088436 -7.748200 30.309028 0.717378 -1.647550 -7.295930 0.407910 0.174185 -0.376076 -0.438882
-31.123094 83.436190 -86.906539 21.652884 -17.362332 4.453566 2.881042 9.891486 -2.663710 2.387385 4.779997 -1.194890 2.971148 5.982400 -1.463560 2.387380 4.780042 -1.194896 -3.410511 24.486727 0.909193 -3.917816 0.841971 1.768464 -0.459340 -0.548908 -8.754139 -2.132915 -6.744713 94.661253 20.215528 5.562636 8.586874 14.157059 -4.836643 -5.664722 1.584349 -1.739794 2.285746 18.390821 2.802685 -85.647743 -12.325938 -7.551343 -5.048026 -5.251502 1.627681 11.732188 -7.795231 6.307573 -8.594717 36.859041 75.178794 31.587288 9.991273 -7.231223 16.183627 -1.440634 -1.989086 -3.863581 8.408586 -7.531618 -6.636212 -7.856664 30.229613 0.666148 -1.575395 -7.670099 0.463272 0.144106 -0.209311 -0.380335
-30.890251 83.676954 -86.071610 21.819997 -17.423604 3.984632 2.647308 9.842100 -2.235702 2.230533 4.762715 -1.176756 2.775189 5.960221 -1.443038 2.230526 4.762762 -1.176762 -3.353259 24.577074 0.895354 -3.853098 0.949381 1.740417 -0.720341 -0.275060 -8.828478 -2.353957 -5.938409 95.101629 18.342067 5.531972 7.767263 13.893389 -4.970206 -5.697879 1.291845 -1.912645 2.259222 16.924042 1.876097 -86.147016 -13.107428 -7.719334 -5.106240 -5.305087 1.635915 11.654540 -8.412974 4.251988 -8.097040 43.803723 77.646640 37.976161 9.814523 -7.633671 15.216457 -0.878435 0.289089 -1.834158 8.141507 -6.865197 -6.043179 -8.007119 30.091050 0.587685 -1.451542 -7.992658 0.478373 0.105135 -0.089963 -0.334268
